<?xml version="1.0" encoding="UTF-8" standalone="no"?>
<!-- Created with Inkscape (http://www.inkscape.org/) -->

<svg
   xmlns:dc="http://purl.org/dc/elements/1.1/"
   xmlns:cc="http://creativecommons.org/ns#"
   xmlns:rdf="http://www.w3.org/1999/02/22-rdf-syntax-ns#"
   xmlns:svg="http://www.w3.org/2000/svg"
   xmlns="http://www.w3.org/2000/svg"
   xmlns:sodipodi="http://sodipodi.sourceforge.net/DTD/sodipodi-0.dtd"
   xmlns:inkscape="http://www.inkscape.org/namespaces/inkscape"
   width="200"
   height="200"
   viewBox="0 0 200 200"
   id="svg5363"
   version="1.1"
   inkscape:version="0.91 r13725"
   sodipodi:docname="photo.svg">
  <defs
     id="defs5365" />
  <sodipodi:namedview
     id="base"
     pagecolor="#ffffff"
     bordercolor="#666666"
     borderopacity="1.0"
     inkscape:pageopacity="0.0"
     inkscape:pageshadow="2"
     inkscape:zoom="0.98994949"
     inkscape:cx="101.70425"
     inkscape:cy="292.39343"
     inkscape:document-units="px"
     inkscape:current-layer="layer1"
     showgrid="false"
     units="px"
     inkscape:window-width="1920"
     inkscape:window-height="1027"
     inkscape:window-x="-8"
     inkscape:window-y="-8"
     inkscape:window-maximized="1" />
  <metadata
     id="metadata5368">
    <rdf:RDF>
      <cc:Work
         rdf:about="">
        <dc:format>image/svg+xml</dc:format>
        <dc:type
           rdf:resource="http://purl.org/dc/dcmitype/StillImage" />
        <dc:title></dc:title>
      </cc:Work>
    </rdf:RDF>
  </metadata>
  <g
     inkscape:label="Layer 1"
     inkscape:groupmode="layer"
     id="layer1"
     transform="translate(0,-852.36218)">
    <path
       style="fill:#db6d52"
       d="m 34.097282,1028.9267 c -10.51004,-1.5802 -19.05168,-10.3876 -20.32909,-20.9617 -0.3203,-2.6514 -0.45044,-27.39106 -0.28919,-54.977 0.29004,-49.62078 0.31521,-50.19745 2.35773,-54.01544 3.30797,-6.18342 6.89723,-9.84576 11.95963,-12.20312 4.44078,-2.06789 5.81369,-2.20118 22.76276,-2.20978 l 18.03695,-0.009 5.1761,-4.6875 5.1761,-4.6875 20.93796,0 20.937958,0 5.35667,4.6875 5.35667,4.6875 17.59094,0 c 20.18444,0 24.11099,0.84695 29.87926,6.44486 7.58878,7.36465 7.23163,4.34483 7.52868,63.65657 0.17324,34.5881 -0.0733,54.01121 -0.71586,56.39751 -1.77241,6.5822 -6.49796,12.397 -12.60561,15.5112 l -5.55724,2.8336 -64.28651,0.1412 c -35.357588,0.078 -66.530848,-0.1963 -69.273908,-0.6088 z m 79.008008,-15.9939 c 30.39282,-9.3874 45.04515,-46.96344 29.99711,-76.92788 -4.52076,-9.00197 -14.34633,-18.85617 -22.92398,-22.99076 -20.188448,-9.73124 -41.830168,-6.17147 -57.770468,9.50245 -31.25697,30.73462 -15.15999,84.70419 27.54864,92.36439 6.00695,1.0774 16.104178,0.2276 23.148698,-1.9482 z M 69.131562,988.0572 c -2.91664,-2.91663 -7.12145,-12.96759 -8.23414,-19.68244 -2.83898,-17.13271 6.3124,-35.25981 21.60032,-42.78603 5.78655,-2.84871 6.91072,-3.06947 15.62972,-3.06929 8.442468,1.7e-4 9.950058,0.27263 14.873678,2.688 6.83494,3.35301 14.4134,10.94838 17.77597,17.81563 2.55736,5.22281 4.19565,10.90243 3.14481,10.90243 -0.30436,0 -2.52764,-1.25204 -4.94063,-2.78231 -7.14147,-4.52899 -12.64655,-5.93461 -21.43599,-5.47328 -9.672978,0.5077 -16.627698,3.65972 -23.733808,10.75665 -6.46054,6.45219 -10.18831,14.43773 -11.73225,25.13257 -1.1647,8.06786 -1.23123,8.21453 -2.94768,6.49807 z m 98.575588,-63.87036 c 6.7922,-4.45043 6.31741,-15.65092 -0.83163,-19.61803 -2.91995,-1.62033 -8.70004,-1.5735 -11.92973,0.0966 -5.43118,2.80857 -7.09646,11.34703 -3.33321,17.09047 3.15552,4.81593 10.71256,5.95735 16.09457,2.43092 z"
       id="path5922"
       inkscape:connector-curvature="0" />
  </g>
</svg>
