<?xml version="1.0" encoding="UTF-8" standalone="no"?>
<!-- Created with Inkscape (http://www.inkscape.org/) -->

<svg
   xmlns:dc="http://purl.org/dc/elements/1.1/"
   xmlns:cc="http://creativecommons.org/ns#"
   xmlns:rdf="http://www.w3.org/1999/02/22-rdf-syntax-ns#"
   xmlns:svg="http://www.w3.org/2000/svg"
   xmlns="http://www.w3.org/2000/svg"
   xmlns:sodipodi="http://sodipodi.sourceforge.net/DTD/sodipodi-0.dtd"
   xmlns:inkscape="http://www.inkscape.org/namespaces/inkscape"
   width="200"
   height="200"
   viewBox="0 0 200 200"
   id="svg6495"
   version="1.1"
   inkscape:version="0.91 r13725"
   sodipodi:docname="text.svg">
  <defs
     id="defs6497" />
  <sodipodi:namedview
     id="base"
     pagecolor="#ffffff"
     bordercolor="#666666"
     borderopacity="1.0"
     inkscape:pageopacity="0.0"
     inkscape:pageshadow="2"
     inkscape:zoom="0.5"
     inkscape:cx="279.55437"
     inkscape:cy="144.07395"
     inkscape:document-units="px"
     inkscape:current-layer="layer1"
     showgrid="false"
     units="px"
     inkscape:window-width="1920"
     inkscape:window-height="1027"
     inkscape:window-x="-8"
     inkscape:window-y="-8"
     inkscape:window-maximized="1" />
  <metadata
     id="metadata6500">
    <rdf:RDF>
      <cc:Work
         rdf:about="">
        <dc:format>image/svg+xml</dc:format>
        <dc:type
           rdf:resource="http://purl.org/dc/dcmitype/StillImage" />
        <dc:title></dc:title>
      </cc:Work>
    </rdf:RDF>
  </metadata>
  <g
     inkscape:label="Layer 1"
     inkscape:groupmode="layer"
     id="layer1"
     transform="translate(0,-852.36216)">
    <path
       style="fill:#585858"
       d="m 129.4348,1010.6666 c -19.30993,-7.5956 -20.52885,-38.19666 -1.90461,-47.81566 4.22572,-2.18249 11.63062,-3.96914 22.26165,-5.37127 14.03863,-1.85156 17.14174,-3.49487 17.14174,-9.0777 0,-11.84774 -22.19909,-13.25139 -27.47055,-1.73697 -3.14086,6.86051 -21.70136,6.65674 -21.53246,-0.23641 0.53314,-21.75876 32.34106,-32.94401 58.66012,-20.62783 10.56515,4.94403 11.32892,8.05956 11.32892,46.21223 0,28.94911 0,28.94911 2.27609,32.23341 3.28223,4.7363 1.77709,5.6201 -9.57178,5.6201 -9.5621,0 -12.01146,-1.118 -12.01146,-5.4828 0,-3.3615 -2.13421,-3.3713 -6.04073,-0.028 -8.95382,7.6642 -22.92919,10.3255 -33.13693,6.3103 z m 28.17015,-17.12268 c 8.12432,-4.11999 14.97019,-26.62927 7.43989,-24.4624 -1.03881,0.29893 -5.96954,1.46801 -10.95718,2.59795 -12.2667,2.779 -14.69389,4.03026 -16.72512,8.62219 -5.35151,12.09796 6.81022,20.05404 20.24241,13.24226 z M 8.2791568,1008.2511 c 0,-0.6455 38.0771032,-109.8872 39.8881212,-114.4374 0.684635,-1.72014 26.663247,-2.28591 27.703143,-0.60333 0.748477,1.21107 39.857229,114.09333 39.857229,115.04273 0,5.9754 -25.399798,-0.1348 -27.315981,-6.5712 -5.551747,-18.64808 -2.255854,-16.57895 -26.408265,-16.57895 -21.405752,0 -21.405752,0 -24.487795,9.23386 -1.695124,5.07859 -3.51388,10.46149 -4.041682,11.96199 -0.94708,2.6925 -25.1947702,4.5714 -25.1947702,1.9523 z M 75.79201,967.15558 c 0.466201,-0.75433 -11.605656,-42.02368 -13.144139,-44.9351 -1.321088,-2.50003 -15.760914,41.41919 -14.606747,44.4269 0.544764,1.41962 26.889427,1.90207 27.750886,0.5082 z"
       id="path7060"
       inkscape:connector-curvature="0" />
  </g>
</svg>
