<?xml version="1.0" encoding="UTF-8" standalone="no"?>
<!-- Created with Inkscape (http://www.inkscape.org/) -->

<svg
   xmlns:dc="http://purl.org/dc/elements/1.1/"
   xmlns:cc="http://creativecommons.org/ns#"
   xmlns:rdf="http://www.w3.org/1999/02/22-rdf-syntax-ns#"
   xmlns:svg="http://www.w3.org/2000/svg"
   xmlns="http://www.w3.org/2000/svg"
   xmlns:sodipodi="http://sodipodi.sourceforge.net/DTD/sodipodi-0.dtd"
   xmlns:inkscape="http://www.inkscape.org/namespaces/inkscape"
   width="200"
   height="200"
   viewBox="0 0 200 200.00001"
   id="svg2"
   version="1.1"
   inkscape:version="0.91 r13725"
   sodipodi:docname="video.svg">
  <defs
     id="defs4" />
  <sodipodi:namedview
     id="base"
     pagecolor="#ffffff"
     bordercolor="#666666"
     borderopacity="1.0"
     inkscape:pageopacity="0.0"
     inkscape:pageshadow="2"
     inkscape:zoom="0.98994949"
     inkscape:cx="30.625664"
     inkscape:cy="185.84766"
     inkscape:document-units="px"
     inkscape:current-layer="layer1"
     showgrid="false"
     units="px"
     inkscape:window-width="879"
     inkscape:window-height="701"
     inkscape:window-x="687"
     inkscape:window-y="194"
     inkscape:window-maximized="0" />
  <metadata
     id="metadata7">
    <rdf:RDF>
      <cc:Work
         rdf:about="">
        <dc:format>image/svg+xml</dc:format>
        <dc:type
           rdf:resource="http://purl.org/dc/dcmitype/StillImage" />
        <dc:title></dc:title>
      </cc:Work>
    </rdf:RDF>
  </metadata>
  <g
     inkscape:label="Layer 1"
     inkscape:groupmode="layer"
     id="layer1"
     transform="translate(0,-852.3622)">
    <path
       style="fill:#838e96;stroke:none;stroke-opacity:1"
       d="m 51.098637,1031.9491 c -11.178979,-1.889 -11.495589,-2.7114 -12.067199,-31.3457 l -0.46875,-23.48184 -7.96875,-0.7081 c -11.1136,-0.9875 -10.42827,-0.3219 -10.11485,-9.8234 l 0.2711,-8.2185 60.468749,0 60.468743,0 0.46875,11.25 0.46875,11.2499 1.94682,0.2783 c 1.44089,0.2059 5.01962,-2.9003 13.77095,-11.953 12.92568,-13.3709 15.09993,-14.5059 19.27507,-10.0616 l 2.03841,2.1698 0,31.0075 0,31.00764 -1.72891,2.1351 c -1.17599,1.4523 -2.73256,2.1352 -4.86723,2.1352 l -3.13834,0 -11.99018,-12.4159 c -8.07916,-8.366 -12.53105,-12.3122 -13.64837,-12.0981 l -1.65822,0.3179 -0.22999,11.2386 c -0.29472,14.4007 -0.52694,15.2818 -4.46075,16.9255 -3.57603,1.4942 -78.315513,1.8305 -86.835803,0.3907 z m 4.03558,-84.40024 c -35.291029,-7.1553 -42.454919,-54.8295 -10.595929,-70.5136 l 6.172469,-3.0387 9.64726,-1.2627 9.14217,1.2627 5.50953,2.7052 c 3.22443,1.5833 7.78518,5.0382 10.99629,8.33 l 5.48677,5.6247 5.5497,-5.7604 c 3.525253,-3.659 7.550643,-6.6977 11.034963,-8.3299 l 5.48525,-2.5696 8.66071,-2.1429 10.08929,2.1429 5.40774,2.5341 c 26.98042,12.6432 28.45124,54.3321 2.42545,68.7475 l -5.02069,2.7809 -37.968753,0.1558 c -20.88281,0.086 -39.79281,-0.214 -42.02222,-0.666 z m 18.9628,-23.7321 c 6.2645,-4.7782 8.44232,-14.1408 4.88802,-21.014 -2.05085,-3.9659 -3.0246,-3.8183 -3.72549,0.5648 -1.73036,10.8211 -12.14337,16.4135 -23.80623,12.7853 -2.69513,-0.8385 -2.75179,0.7146 -0.15892,4.3559 4.87674,6.8488 16.03766,8.4679 22.80262,3.308 z m 60.517823,-0.5802 c 7.35932,-3.7545 10.63552,-13.6704 7.21859,-21.8483 -1.92808,-4.6145 -2.97525,-4.3955 -4.309,0.9013 -2.77062,11.0032 -11.97979,15.7667 -23.25861,12.0308 -5.06878,-1.679 0.29981,7.0499 5.81289,9.4513 4.17204,1.8172 10.37262,1.5889 14.53613,-0.5351 z"
       id="path4794"
       inkscape:connector-curvature="0"
       sodipodi:nodetypes="sscssccccccsscccsscsccssssscccsscsscccssccssssssscssssc" />
  </g>
</svg>
