<?xml version="1.0" encoding="UTF-8" standalone="no"?>
<!-- Created with Inkscape (http://www.inkscape.org/) -->

<svg
   xmlns:dc="http://purl.org/dc/elements/1.1/"
   xmlns:cc="http://creativecommons.org/ns#"
   xmlns:rdf="http://www.w3.org/1999/02/22-rdf-syntax-ns#"
   xmlns:svg="http://www.w3.org/2000/svg"
   xmlns="http://www.w3.org/2000/svg"
   xmlns:sodipodi="http://sodipodi.sourceforge.net/DTD/sodipodi-0.dtd"
   xmlns:inkscape="http://www.inkscape.org/namespaces/inkscape"
   width="80"
   height="80"
   viewBox="0 0 80 80"
   id="svg5291"
   version="1.1"
   inkscape:version="0.91 r13725"
   sodipodi:docname="home.svg">
  <defs
     id="defs5293" />
  <sodipodi:namedview
     id="base"
     pagecolor="#ffffff"
     bordercolor="#666666"
     borderopacity="1.0"
     inkscape:pageopacity="0.0"
     inkscape:pageshadow="2"
     inkscape:zoom="2.8"
     inkscape:cx="35.469851"
     inkscape:cy="71.213204"
     inkscape:document-units="px"
     inkscape:current-layer="layer1"
     showgrid="false"
     units="px"
     inkscape:window-width="1920"
     inkscape:window-height="1027"
     inkscape:window-x="-8"
     inkscape:window-y="-8"
     inkscape:window-maximized="1" />
  <metadata
     id="metadata5296">
    <rdf:RDF>
      <cc:Work
         rdf:about="">
        <dc:format>image/svg+xml</dc:format>
        <dc:type
           rdf:resource="http://purl.org/dc/dcmitype/StillImage" />
        <dc:title></dc:title>
      </cc:Work>
    </rdf:RDF>
  </metadata>
  <g
     inkscape:label="Layer 1"
     inkscape:groupmode="layer"
     id="layer1"
     transform="translate(0,-972.36221)">
    <path
       style="fill:#cccccc"
       d="m 4.9547864,1049.1102 c -0.25161,-0.6557 -0.34384,-10.8599 -0.20495,-22.6761 l 0.25253,-21.4839 17.0857896,-15.29274 c 9.39718,-8.41095 17.52889,-15.29264 18.07046,-15.29264 0.54157,0 8.67327,6.8821 18.07046,15.29354 l 17.085786,15.29364 0,22.4408 0,22.4408 -11.457736,0.263 -11.45773,0.263 -0.26102,-12.9192 -0.26101,-12.9193 -11.11704,-0.265 c -7.39481,-0.1763 -11.55392,0.098 -12.42187,0.8179 -0.99118,0.8226 -1.30484,3.9851 -1.30484,13.1557 l 0,12.0727 -10.81068,0 c -7.8818196,0 -10.9346096,-0.323 -11.2681496,-1.1922 z"
       id="path5850"
       inkscape:connector-curvature="0" />
  </g>
</svg>
